<svg width="64" height="64" viewBox="0 0 64 64" xmlns="http://www.w3.org/2000/svg">
  <defs>
    <g id="star" fill="#FFCC00">
      <polygon points="0.00,-3.00 0.76,-1.05 2.85,-0.93 1.24,0.40 1.76,2.43 0.00,1.30 -1.76,2.43 -1.24,0.40 -2.85,-0.93 -0.76,-1.05"/>
    </g>
  </defs>
  <circle cx="32" cy="32" r="32" fill="#003399"/>
  <g transform="translate(32 32)">
    <use href="#star" transform="rotate(0) translate(0 -20)"/>
    <use href="#star" transform="rotate(30) translate(0 -20)"/>
    <use href="#star" transform="rotate(60) translate(0 -20)"/>
    <use href="#star" transform="rotate(90) translate(0 -20)"/>
    <use href="#star" transform="rotate(120) translate(0 -20)"/>
    <use href="#star" transform="rotate(150) translate(0 -20)"/>
    <use href="#star" transform="rotate(180) translate(0 -20)"/>
    <use href="#star" transform="rotate(210) translate(0 -20)"/>
    <use href="#star" transform="rotate(240) translate(0 -20)"/>
    <use href="#star" transform="rotate(270) translate(0 -20)"/>
    <use href="#star" transform="rotate(300) translate(0 -20)"/>
    <use href="#star" transform="rotate(330) translate(0 -20)"/>
  </g>
</svg>
